<svg xmlns="http://www.w3.org/2000/svg" xml:space="preserve" viewBox="0 0 64 64">
  <g data-name="Truck Delivery">
    <path d="M38.11 17H12.65a2.038 2.038 0 0 0-2.03 2.03v1.05h4.07a3.53 3.53 0 0 1 0 7.06h-4.07v1.08h6.11a3.525 3.525 0 0 1 0 7.05h-6.11v5.12a2.031 2.031 0 0 0 2.03 2.03h1.55a6.112 6.112 0 0 1 12.18 0h13.77V19.03A2.047 2.047 0 0 0 38.11 17zM60 33.15v8.257a1.124 1.124 0 0 1-1.201 1.017h-2.892a6.11 6.11 0 0 0-12.178 0h-1.547V23.102h7.097a1.301 1.301 0 0 1 .896.335l2.323 2.207H49.47a1.2 1.2 0 0 0-1.18 1.22v3.662a1.2 1.2 0 0 0 1.18 1.22h9.454c.4.38 1.076.862 1.076 1.403z" data-original="#000000"/>
    <path d="M20.29 38.86a4.07 4.07 0 1 0 4.07 4.07 4.074 4.074 0 0 0-4.07-4.07zm33.6 4.072a4.073 4.073 0 1 1-4.072-4.068 4.07 4.07 0 0 1 4.073 4.068zM16.73 30.22H5.53a1.525 1.525 0 0 0 0 3.05h11.2a1.525 1.525 0 0 0 0-3.05zm-2.04-8.14H7.56a1.53 1.53 0 0 0 0 3.06h7.13a1.53 1.53 0 0 0 0-3.06z" data-original="#000000"/>
  </g>
</svg>
